<svg width="24" height="24" viewBox="0 0 24 24" fill="none" xmlns="http://www.w3.org/2000/svg">
<path d="M12.8742 7.88564C12.6059 8.36843 11.9971 8.54237 11.5144 8.27416C11.0316 8.00594 10.8576 7.39714 11.1258 6.91436L12.8742 7.88564ZM15.8742 2.48564L12.8742 7.88564L11.1258 6.91436L14.1258 1.51436L15.8742 2.48564Z" fill="#008C52"/>
<rect x="5" y="5" width="14" height="16" rx="3" fill="white" stroke="#00AF66" stroke-width="2"/>
<path d="M11.1258 7.88564C11.3941 8.36843 12.0029 8.54237 12.4856 8.27416C12.9684 8.00594 13.1424 7.39714 12.8742 6.91436L11.1258 7.88564ZM8.12584 2.48564L11.1258 7.88564L12.8742 6.91436L9.87416 1.51436L8.12584 2.48564Z" fill="#008C52"/>
<circle cx="12" cy="12" r="1.5" stroke="#00AF66"/>
<path d="M11.3753 14.4998L9.22609 16.2191C8.48795 16.8096 8.9055 18 9.85078 18H14.1492C15.0945 18 15.5121 16.8096 14.7739 16.2191L12.6247 14.4998C12.2595 14.2076 11.7405 14.2076 11.3753 14.4998Z" stroke="#00AF66"/>
</svg>
