<svg width="48" height="24" viewBox="0 0 48 24" fill="none" xmlns="http://www.w3.org/2000/svg">
<g clip-path="url(#clip0_1_7433)">
<path d="M27.2023 8.53755C28.4682 8.53755 29.4913 9.56067 29.4913 10.8266C29.4913 12.0925 28.4682 13.1156 27.2023 13.1156C25.9364 13.1156 24.9133 12.0925 24.9133 10.8266C24.9133 9.56067 25.9364 8.53755 27.2023 8.53755ZM27.2023 6.60114C24.8728 6.60114 22.9711 8.49709 22.9711 10.8323C22.9711 13.1618 24.867 15.0636 27.2023 15.0636C29.5375 15.0636 31.4335 13.1676 31.4335 10.8323C31.4335 8.49709 29.5375 6.60114 27.2023 6.60114Z" fill="#4ABC57"/>
<path d="M35.3468 8.53755C36.6127 8.53755 37.6358 9.56067 37.6358 10.8266C37.6358 12.0925 36.6127 13.1156 35.3468 13.1156C34.0809 13.1156 33.0578 12.0925 33.0578 10.8266C33.0578 9.56067 34.0809 8.53755 35.3468 8.53755ZM35.3468 6.60114C33.0173 6.60114 31.1156 8.49709 31.1156 10.8323C31.1156 13.1618 33.0116 15.0636 35.3468 15.0636C37.6821 15.0636 39.578 13.1676 39.578 10.8323C39.5723 8.49709 37.6763 6.60114 35.3468 6.60114Z" fill="#4ABC57"/>
<path d="M20.1445 15.6821C20.7399 15.1734 21.3468 14.607 21.9248 13.9596C22.7803 13.185 23.3237 12.0694 23.3237 10.8266C23.3237 8.49713 21.4277 6.5954 19.0925 6.5954C16.763 6.5954 14.8613 8.49135 14.8613 10.8266C14.8613 12.7919 16.2139 14.4451 18.0347 14.9133C18.0058 14.9364 17.9769 14.9596 17.948 14.9827C16.8208 15.9018 15.8439 16.6994 15.4277 17.6705C15.0751 18.289 14.867 19.0058 14.867 19.7688C14.867 22.0983 16.763 24 19.0983 24C21.4277 24 23.3295 22.1041 23.3295 19.7688C23.3179 17.8035 21.9653 16.1503 20.1445 15.6821ZM16.7977 10.8266C16.7977 9.56072 17.8208 8.53759 19.0867 8.53759C20.3526 8.53759 21.3757 9.56072 21.3757 10.8266C21.3757 11.4104 21.1503 11.9422 20.7861 12.3468C20.7341 12.3873 20.6821 12.4335 20.6358 12.4914C20.6185 12.5087 20.6012 12.526 20.5838 12.5434C20.1792 12.896 19.659 13.1156 19.0867 13.1156C17.8266 13.1156 16.7977 12.0925 16.7977 10.8266ZM19.0867 22.0578C17.8208 22.0578 16.7977 21.0347 16.7977 19.7688C16.7977 18.5029 17.8208 17.4798 19.0867 17.4798C20.3526 17.4798 21.3757 18.5029 21.3757 19.7688C21.3757 21.0347 20.3526 22.0578 19.0867 22.0578Z" fill="#4ABC57"/>
<path d="M6.86705 7.52601C7.83237 6.75145 8.45665 5.56069 8.45665 4.22543C8.45665 1.89595 6.56069 0 4.23121 0C1.89595 0 0 1.89595 0 4.23121C0 5.56647 0 9.49711 0 10.8324C0 13.1618 1.89595 15.0636 4.23121 15.0636C6.56069 15.0636 8.46243 13.1676 8.46243 10.8324C8.45665 9.49133 7.83237 8.30636 6.86705 7.52601ZM4.23121 13.1156C2.96532 13.1156 1.9422 12.0925 1.9422 10.8266V7.9711C1.9422 7.9711 2.65318 8.46243 4.39306 8.53757C4.50867 8.54335 4.59538 8.56069 4.65896 8.57803C5.71676 8.78035 6.52023 9.7052 6.52023 10.8266C6.52023 12.0925 5.49133 13.1156 4.23121 13.1156ZM4.23121 6.52023C2.96532 6.52023 1.9422 5.49711 1.9422 4.23121C1.9422 2.96532 2.96532 1.9422 4.23121 1.9422C5.49711 1.9422 6.52023 2.96532 6.52023 4.23121C6.52023 5.49711 5.49133 6.52023 4.23121 6.52023Z" fill="#4ABC57"/>
<path d="M12.815 10.5433C12.9942 10.5433 13.1387 10.3988 13.1387 10.2196C13.1387 10.0693 13.0347 9.94796 12.896 9.91328C12.9018 9.76877 12.815 9.63582 12.6705 9.58958C12.4971 9.53756 12.3179 9.63582 12.2659 9.80345L12.237 9.89594H11.6763C11.6763 9.75721 11.5896 9.63004 11.4509 9.58958C11.2775 9.53756 11.0983 9.63582 11.0463 9.80345L11.0174 9.89594H10.896C10.7168 9.89594 10.5723 10.0404 10.5723 10.2196C10.5723 10.3757 10.6821 10.4971 10.8266 10.526L10.659 11.0809H10.5838C10.4046 11.0809 10.2601 11.2254 10.2601 11.4046C10.2601 11.5491 10.3584 11.6647 10.4856 11.711C10.4856 11.8497 10.5723 11.9769 10.711 12.0173C10.7399 12.0289 10.7746 12.0289 10.8035 12.0289C10.9422 12.0289 11.0694 11.9364 11.1156 11.7977L11.1387 11.7283H11.6994C11.711 11.8555 11.7919 11.9769 11.9249 12.0115C11.9538 12.0231 11.9885 12.0231 12.0174 12.0231C12.1561 12.0231 12.2833 11.9306 12.3295 11.7919L12.3526 11.7225H12.4913C12.6705 11.7225 12.815 11.578 12.815 11.3988C12.815 11.237 12.6994 11.1098 12.5434 11.0867L12.711 10.5318H12.815V10.5433ZM11.6763 11.1387C11.5087 11.1387 11.3757 11.0058 11.3757 10.8381C11.3757 10.6705 11.5087 10.5376 11.6763 10.5376C11.8439 10.5376 11.9769 10.6705 11.9769 10.8381C11.9769 11.0058 11.8382 11.1387 11.6763 11.1387Z" fill="#4ABC57"/>
<path d="M7.80349 13.0809C8.2139 12.4277 8.45667 11.6589 8.45667 10.8266C8.45667 9.49132 7.83239 8.30057 6.86708 7.526C6.33528 7.8786 5.60696 8.38149 4.2428 8.526C4.29482 8.53178 4.33528 8.53178 4.38731 8.53756C4.49713 8.54912 4.57806 8.57224 4.6532 8.57802C5.71101 8.78034 6.51447 9.70519 6.51447 10.8266C6.51447 11.4393 6.2717 11.9942 5.87286 12.4104L7.80349 13.0809Z" fill="url(#paint0_linear_1_7433)"/>
<path d="M18.0289 14.9191C18 14.9422 17.9711 14.9653 17.9422 14.9884C16.815 15.9075 15.8381 16.7052 15.422 17.6763C15.0694 18.2948 14.8613 19.0116 14.8613 19.7746C14.8613 20 14.8786 20.2196 14.9133 20.4393L16.8092 20.0289C16.8092 20.0289 16.8035 19.815 16.8035 19.7746C16.8035 19.2717 16.9711 18.8092 17.2485 18.4277C17.9827 17.185 19.4335 16.2312 20.1445 15.6821C20.7399 15.1734 21.3468 14.6069 21.9248 13.9595C21.1734 14.6416 20.185 15.0578 19.0925 15.0578C18.7225 15.0578 18.3699 15.0058 18.0289 14.9191Z" fill="url(#paint1_linear_1_7433)"/>
<path d="M27.2023 6.60114C27.711 6.63582 28.1214 7.052 28.1214 7.57223C28.1214 8.09246 27.7168 8.50865 27.2023 8.53755C28.4682 8.53755 29.4913 9.56067 29.4913 10.8266C29.4913 11.0404 29.5087 11.0462 29.4509 11.2428L31.4162 11.1214C31.422 11.0231 31.4335 10.9248 31.4335 10.8266C31.4335 8.49709 29.5376 6.60114 27.2023 6.60114Z" fill="url(#paint2_linear_1_7433)"/>
<path d="M35.3468 6.60114C35.8555 6.63582 36.2659 7.052 36.2659 7.57223C36.2659 8.09246 35.8613 8.50865 35.3468 8.53755C36.6127 8.53755 37.6358 9.56067 37.6358 10.8266C37.6358 11.0578 37.6994 10.8497 37.6358 11.0578L39.5607 11.0867C39.5665 11 39.5722 10.9133 39.5722 10.8266C39.5722 8.49709 37.6763 6.60114 35.3468 6.60114Z" fill="url(#paint3_linear_1_7433)"/>
<mask id="mask0_1_7433" style="mask-type:luminance" maskUnits="userSpaceOnUse" x="39" y="1" width="9" height="15">
<path d="M47.6416 2.5087C47.6416 1.97112 47.2081 1.5376 46.6705 1.5376C46.133 1.5376 45.6994 1.97112 45.6994 2.5087V7.27748C45.0405 6.84974 44.2543 6.60118 43.4104 6.60118C41.0809 6.60118 39.1792 8.49713 39.1792 10.8324C39.1792 13.1619 41.0752 15.0636 43.4104 15.0636C45.7399 15.0636 47.6416 13.1677 47.6416 10.8324C47.6416 10.8035 47.6358 10.7804 47.6358 10.7515C47.6358 10.7399 47.6416 10.7226 47.6416 10.711V2.5087ZM43.4104 13.1156C42.1445 13.1156 41.1214 12.0925 41.1214 10.8266C41.1214 9.56072 42.1445 8.5376 43.4104 8.5376C44.6763 8.5376 45.6994 9.56072 45.6994 10.8266C45.6994 12.0925 44.6763 13.1156 43.4104 13.1156Z" fill="white"/>
</mask>
<g mask="url(#mask0_1_7433)">
<path d="M47.6416 2.5087C47.6416 1.97112 47.2081 1.5376 46.6705 1.5376C46.133 1.5376 45.6994 1.97112 45.6994 2.5087V7.27748C45.0405 6.84974 44.2543 6.60118 43.4104 6.60118C41.0809 6.60118 39.1792 8.49713 39.1792 10.8324C39.1792 13.1619 41.0752 15.0636 43.4104 15.0636C45.7399 15.0636 47.6416 13.1677 47.6416 10.8324C47.6416 10.8035 47.6358 10.7804 47.6358 10.7515C47.6358 10.7399 47.6416 10.7226 47.6416 10.711V2.5087ZM43.4104 13.1156C42.1445 13.1156 41.1214 12.0925 41.1214 10.8266C41.1214 9.56072 42.1445 8.5376 43.4104 8.5376C44.6763 8.5376 45.6994 9.56072 45.6994 10.8266C45.6994 12.0925 44.6763 13.1156 43.4104 13.1156Z" fill="#4ABC57"/>
<path d="M45.6995 3.71099V7.27746C46.8266 8.00578 47.5896 9.26012 47.6301 10.6936L47.6359 10.7052V9.71099V3.68787L45.6995 3.71099Z" fill="url(#paint4_linear_1_7433)"/>
<path d="M43.4104 8.53761C44.6763 8.53761 45.6994 9.56073 45.6994 10.8266C45.6994 12.0925 44.6763 13.1156 43.4104 13.1156C42.1445 13.1156 41.1214 12.0925 41.1214 10.8266C41.1214 9.56073 42.1445 8.53761 43.4104 8.53761ZM43.4104 6.6012C41.0809 6.6012 39.1792 8.49715 39.1792 10.8324C39.1792 13.1619 41.0752 15.0636 43.4104 15.0636C45.7457 15.0636 47.6416 13.1677 47.6416 10.8324C47.6416 8.49715 45.7399 6.6012 43.4104 6.6012Z" fill="#4ABC57"/>
</g>
</g>
<defs>
<linearGradient id="paint0_linear_1_7433" x1="7.10799" y1="11.7244" x2="5.96403" y2="8.13545" gradientUnits="userSpaceOnUse">
<stop stop-color="#4ABC57"/>
<stop offset="1" stop-color="#2A793F"/>
</linearGradient>
<linearGradient id="paint1_linear_1_7433" x1="16.9825" y1="17.9029" x2="19.1631" y2="15.0992" gradientUnits="userSpaceOnUse">
<stop stop-color="#4ABC57"/>
<stop offset="1" stop-color="#2A793F"/>
</linearGradient>
<linearGradient id="paint2_linear_1_7433" x1="29.9564" y1="9.6873" x2="28.0686" y2="7.43116" gradientUnits="userSpaceOnUse">
<stop stop-color="#4ABC57"/>
<stop offset="1" stop-color="#2A793F"/>
</linearGradient>
<linearGradient id="paint3_linear_1_7433" x1="38.0895" y1="9.66948" x2="36.2104" y2="7.42371" gradientUnits="userSpaceOnUse">
<stop stop-color="#4ABC57"/>
<stop offset="1" stop-color="#2A793F"/>
</linearGradient>
<linearGradient id="paint4_linear_1_7433" x1="47.4002" y1="5.15688" x2="46.0357" y2="8.98634" gradientUnits="userSpaceOnUse">
<stop stop-color="#4ABC57"/>
<stop offset="0.3467" stop-color="#3CA04D"/>
<stop offset="0.7603" stop-color="#2F8443"/>
<stop offset="1" stop-color="#2A793F"/>
</linearGradient>
<clipPath id="clip0_1_7433">
<rect width="47.6416" height="24" fill="white"/>
</clipPath>
</defs>
</svg>
