<svg width="18" height="19" viewBox="0 0 18 19" fill="none" xmlns="http://www.w3.org/2000/svg">
<path d="M12.9562 13.9642L12.6375 13.6368C12.525 13.5212 12.3907 13.4634 12.2347 13.4634C12.0787 13.4634 11.9443 13.5212 11.8312 13.6368C11.7182 13.7523 11.662 13.8872 11.6625 14.0412C11.663 14.1953 11.7192 14.3302 11.8312 14.4457L12.5625 15.1969C12.675 15.3125 12.8062 15.3703 12.9562 15.3703C13.1062 15.3703 13.2375 15.3125 13.35 15.1969L15.1688 13.3671C15.2812 13.2515 15.3375 13.1134 15.3375 12.9526C15.3375 12.7918 15.2812 12.6539 15.1688 12.5389C15.0563 12.4238 14.9218 12.3661 14.7653 12.3655C14.6088 12.365 14.4745 12.4228 14.3625 12.5389L12.9562 13.9642ZM12.75 6.93393C12.9625 6.93393 13.1407 6.85996 13.2847 6.71204C13.4287 6.56412 13.5005 6.38126 13.5 6.16349C13.4995 5.94571 13.4275 5.76286 13.284 5.61493C13.1405 5.46701 12.9625 5.39304 12.75 5.39304H5.25C5.0375 5.39304 4.8595 5.46701 4.716 5.61493C4.5725 5.76286 4.5005 5.94571 4.5 6.16349C4.4995 6.38126 4.5715 6.56437 4.716 6.71281C4.8605 6.86125 5.0385 6.93495 5.25 6.93393H12.75ZM13.5 17.7201C12.4625 17.7201 11.5782 17.3444 10.8472 16.5929C10.1163 15.8415 9.7505 14.9332 9.75 13.8679C9.7495 12.8026 10.1153 11.8943 10.8472 11.1428C11.5793 10.3914 12.4635 10.0157 13.5 10.0157C14.5365 10.0157 15.421 10.3914 16.1535 11.1428C16.886 11.8943 17.2515 12.8026 17.25 13.8679C17.2485 14.9332 16.8828 15.8418 16.1528 16.5937C15.4228 17.3457 14.5385 17.7211 13.5 17.7201ZM2.25 16.8534V3.85216C2.25 3.42842 2.397 3.0658 2.691 2.7643C2.985 2.4628 3.338 2.31179 3.75 2.31128H14.25C14.6625 2.31128 15.0157 2.46229 15.3097 2.7643C15.6038 3.06631 15.7505 3.42893 15.75 3.85216V8.08959C15.75 8.30788 15.6625 8.48457 15.4875 8.61965C15.3125 8.75474 15.1187 8.78992 14.9062 8.7252C14.5562 8.63532 14.2 8.57111 13.8375 8.53259C13.475 8.49407 13.1125 8.47481 12.75 8.47481H5.25C5.0375 8.47481 4.8595 8.54877 4.716 8.6967C4.5725 8.84462 4.5005 9.02747 4.5 9.24525C4.4995 9.46303 4.5715 9.64614 4.716 9.79458C4.8605 9.94301 5.0385 10.0167 5.25 10.0157H9.825C9.6125 10.234 9.41575 10.4715 9.23475 10.7284C9.05375 10.9852 8.89425 11.2612 8.75625 11.5566H5.25C5.0375 11.5566 4.8595 11.6305 4.716 11.7785C4.5725 11.9264 4.5005 12.1092 4.5 12.327C4.4995 12.5448 4.5715 12.7279 4.716 12.8763C4.8605 13.0248 5.0385 13.0985 5.25 13.0975H8.30625C8.28125 13.2259 8.26575 13.3512 8.25975 13.4734C8.25375 13.5957 8.2505 13.7272 8.25 13.8679C8.25 14.2018 8.28125 14.5292 8.34375 14.8502C8.40625 15.1712 8.4875 15.4922 8.5875 15.8133C8.65 15.9545 8.625 16.067 8.5125 16.1507C8.4 16.2344 8.29375 16.2247 8.19375 16.1214L8.1375 16.0637C8.0625 15.9866 7.975 15.9481 7.875 15.9481C7.775 15.9481 7.6875 15.9866 7.6125 16.0637L7.0125 16.68C6.9375 16.7571 6.85 16.7956 6.75 16.7956C6.65 16.7956 6.5625 16.7571 6.4875 16.68L5.8875 16.0637C5.8125 15.9866 5.725 15.9481 5.625 15.9481C5.525 15.9481 5.4375 15.9866 5.3625 16.0637L4.7625 16.68C4.6875 16.7571 4.6 16.7956 4.5 16.7956C4.4 16.7956 4.3125 16.7571 4.2375 16.68L3.6375 16.0637C3.5625 15.9866 3.475 15.9481 3.375 15.9481C3.275 15.9481 3.1875 15.9866 3.1125 16.0637L2.5125 16.68L2.25 16.8534Z" fill="#D4D4D4"/>
</svg>
