<svg width="24" height="24" viewBox="0 0 24 24" fill="none" xmlns="http://www.w3.org/2000/svg">
<path d="M11.8408 11.959C11.8506 10.6504 12.251 10.25 12.9248 9.83984C13.3301 9.5957 13.6377 9.20508 13.6377 8.6582C13.6377 7.99414 13.1201 7.56934 12.4756 7.57422C11.9189 7.56934 11.3574 7.90137 11.3037 8.70703H10.415C10.4639 7.52051 11.3574 6.83203 12.4756 6.83203C13.7012 6.83203 14.4971 7.61816 14.4971 8.69727C14.4971 9.46387 14.1357 9.99609 13.5303 10.3672C12.9199 10.7383 12.7002 11.1143 12.6807 11.959V12.0078H11.8408V11.959ZM11.665 13.4238C11.6553 13.082 11.9482 12.7988 12.29 12.7988C12.6367 12.7988 12.9199 13.082 12.915 13.4238C12.9199 13.7705 12.6367 14.0537 12.29 14.0586C11.9482 14.0537 11.6553 13.7705 11.665 13.4238Z" fill="#9A9A9A"/>
<path d="M15.8889 17.7832H15.1763L14.9437 18.4567L14.3996 20.032L12.7569 18.1296L12.4577 17.7832H12H7C4.79086 17.7832 3 15.9924 3 13.7832V7C3 4.79086 4.79086 3 7 3H17C19.2091 3 21 4.79086 21 7V13.7832C21 15.9924 19.2091 17.7832 17 17.7832H15.8889Z" stroke="#9A9A9A" stroke-width="2"/>
</svg>
