<svg width="24" height="24" viewBox="0 0 24 24" fill="none" xmlns="http://www.w3.org/2000/svg">
<path d="M15.1174 11.9923C16.3991 10.9639 17.2279 9.38296 17.2279 7.61013C17.2279 4.51727 14.7107 2 11.6178 2C8.51727 2 6 4.51727 6 7.61781C6 9.39064 6 14.6094 6 16.3822C6 19.4751 8.51727 22 11.6178 22C14.7107 22 17.2356 19.4827 17.2356 16.3822C17.2279 14.6017 16.3991 13.0284 15.1174 11.9923ZM11.6178 19.4137C9.93707 19.4137 8.57866 18.0553 8.57866 16.3745V12.5833C8.57866 12.5833 9.52264 13.2356 11.8327 13.3354C11.9862 13.3431 12.1013 13.3661 12.1857 13.3891C13.5902 13.6577 14.6569 14.8856 14.6569 16.3745C14.6569 18.0553 13.2909 19.4137 11.6178 19.4137ZM11.6178 10.6569C9.93707 10.6569 8.57866 9.29854 8.57866 7.61781C8.57866 5.93707 9.93707 4.57866 11.6178 4.57866C13.2985 4.57866 14.6569 5.93707 14.6569 7.61781C14.6569 9.29854 13.2909 10.6569 11.6178 10.6569Z" fill="#9A9A9A"/>
<path d="M16.3605 19.3676C16.9054 18.5004 17.2278 17.4796 17.2278 16.3745C17.2278 14.6017 16.3989 13.0207 15.1173 11.9923C14.4112 12.4605 13.4442 13.1282 11.633 13.32C11.7021 13.3277 11.7558 13.3277 11.8249 13.3354C11.9707 13.3507 12.0781 13.3814 12.1779 13.3891C13.5823 13.6577 14.6491 14.8856 14.6491 16.3745C14.6491 17.188 14.3268 17.9248 13.7972 18.4773L16.3605 19.3676Z" fill="url(#paint0_linear_1_3989)"/>
<defs>
<linearGradient id="paint0_linear_1_3989" x1="15.4371" y1="17.5665" x2="13.9183" y2="12.8015" gradientUnits="userSpaceOnUse">
<stop stop-color="#9A9A9A"/>
<stop offset="1" stop-color="#6D6D6D"/>
</linearGradient>
</defs>
</svg>
