<svg width="20" height="21" viewBox="0 0 20 21" fill="none" xmlns="http://www.w3.org/2000/svg">
<path d="M3.00003 2.58418C2.99857 2.44796 2.94449 2.31791 2.84969 2.22265C2.75489 2.12738 2.62714 2.0747 2.49453 2.0762C2.36192 2.0777 2.23532 2.13325 2.14259 2.23064C2.04985 2.32802 1.99857 2.45926 2.00003 2.59548V18.0043C2.00003 18.1405 2.05271 18.2712 2.14648 18.3675C2.24025 18.4638 2.36742 18.5179 2.50003 18.5179H17.5C17.6326 18.5179 17.7598 18.4638 17.8536 18.3675C17.9474 18.2712 18 18.1405 18 18.0043C18 17.8681 17.9474 17.7374 17.8536 17.6411C17.7598 17.5448 17.6326 17.4907 17.5 17.4907H3.00003V2.58418ZM16 16.4634V5.67725C15.9999 5.5806 15.9732 5.48595 15.9231 5.40418C15.8729 5.3224 15.8013 5.25683 15.7165 5.21498C15.6317 5.17314 15.5371 5.15672 15.4436 5.16763C15.3501 5.17853 15.2616 5.21631 15.188 5.27662L10.453 9.16683L7.24803 7.28593C7.18006 7.24609 7.10393 7.22319 7.02577 7.21909C6.94761 7.21499 6.86961 7.22979 6.79803 7.2623L4.00003 8.53918V16.4634H16Z" fill="#D4D4D4"/>
</svg>
