<svg width="18" height="19" viewBox="0 0 18 19" fill="none" xmlns="http://www.w3.org/2000/svg">
<path d="M12.75 13.9225C11.9175 13.9225 11.25 14.6082 11.25 15.4634C11.25 15.8721 11.408 16.264 11.6893 16.553C11.9706 16.8419 12.3522 17.0043 12.75 17.0043C13.1478 17.0043 13.5294 16.8419 13.8107 16.553C14.092 16.264 14.25 15.8721 14.25 15.4634C14.25 15.0547 14.092 14.6628 13.8107 14.3738C13.5294 14.0849 13.1478 13.9225 12.75 13.9225ZM0.75 1.59546V3.13634H2.25L4.95 8.98399L3.93 10.8716C3.8175 11.0873 3.75 11.3415 3.75 11.6112C3.75 12.0199 3.90804 12.4118 4.18934 12.7008C4.47064 12.9897 4.85218 13.1521 5.25 13.1521H14.25V11.6112H5.565C5.51527 11.6112 5.46758 11.5909 5.43242 11.5548C5.39725 11.5187 5.3775 11.4697 5.3775 11.4186C5.3775 11.3801 5.385 11.3492 5.4 11.3261L6.075 10.0703H11.6625C12.225 10.0703 12.72 9.74673 12.975 9.27676L15.66 4.292C15.7125 4.16873 15.75 4.03776 15.75 3.90678C15.75 3.70245 15.671 3.50648 15.5303 3.362C15.3897 3.21751 15.1989 3.13634 15 3.13634H3.9075L3.2025 1.59546M5.25 13.9225C4.4175 13.9225 3.75 14.6082 3.75 15.4634C3.75 15.8721 3.90804 16.264 4.18934 16.553C4.47064 16.8419 4.85218 17.0043 5.25 17.0043C5.64782 17.0043 6.02936 16.8419 6.31066 16.553C6.59196 16.264 6.75 15.8721 6.75 15.4634C6.75 15.0547 6.59196 14.6628 6.31066 14.3738C6.02936 14.0849 5.64782 13.9225 5.25 13.9225Z" fill="#D4D4D4"/>
</svg>
