<svg width="16" height="15" viewBox="0 0 16 15" fill="none" xmlns="http://www.w3.org/2000/svg">
<path fill-rule="evenodd" clip-rule="evenodd" d="M8.09555 0.0493167C9.20916 0.0489989 10.3087 0.298312 11.3132 0.778919C12.3178 1.25953 13.2018 1.9592 13.9004 2.82649C14.5989 3.69378 15.0941 4.70662 15.3496 5.79052C15.6051 6.87442 15.6144 8.00181 15.3768 9.08977C15.1392 10.1777 14.6607 11.1986 13.9766 12.0773C13.2925 12.956 12.4201 13.6701 11.4236 14.1672C10.4271 14.6643 9.33183 14.9317 8.21837 14.9498C7.10491 14.9678 6.00156 14.736 4.98948 14.2715L1.27591 14.9432C1.18278 14.9599 1.08691 14.9516 0.998044 14.9191C0.909176 14.8867 0.830481 14.8313 0.769961 14.7586C0.709442 14.6859 0.669255 14.5984 0.653489 14.5052C0.637722 14.4119 0.646937 14.3161 0.680198 14.2275L1.7452 11.3925C1.05343 10.2635 0.675044 8.97045 0.649001 7.64657C0.622959 6.32269 0.950197 5.01579 1.59703 3.86039C2.24386 2.70499 3.18692 1.74285 4.32913 1.073C5.47134 0.403153 6.77142 0.0498 8.09555 0.0493167ZM7.68948 4.76253C7.83507 4.70256 7.99213 4.67558 8.14938 4.68354C8.30664 4.69149 8.46018 4.73418 8.59897 4.80854C8.73776 4.88289 8.85836 4.98707 8.95209 5.11358C9.04583 5.24009 9.11038 5.3858 9.14111 5.54022C9.17183 5.69465 9.16796 5.85397 9.12979 6.00672C9.09161 6.15948 9.02007 6.30188 8.92031 6.4237C8.82055 6.54552 8.69505 6.64372 8.55281 6.71126C8.41058 6.7788 8.25515 6.814 8.0977 6.81432C7.9201 6.81432 7.74977 6.88487 7.62419 7.01045C7.49861 7.13603 7.42805 7.30636 7.42805 7.48396V8.6411C7.42805 8.8187 7.49861 8.98903 7.62419 9.11461C7.74977 9.24019 7.9201 9.31074 8.0977 9.31074C8.2753 9.31074 8.44562 9.24019 8.57121 9.11461C8.69679 8.98903 8.76734 8.8187 8.76734 8.6411V8.05717C9.19652 7.93278 9.58255 7.69129 9.88218 7.35979C10.1818 7.02829 10.3832 6.61988 10.4637 6.18036C10.5442 5.74083 10.5007 5.28756 10.3381 4.87138C10.1754 4.45519 9.90004 4.09253 9.54284 3.82407C9.18564 3.55561 8.76072 3.39195 8.31571 3.35145C7.87071 3.31095 7.42323 3.39521 7.02343 3.59477C6.62363 3.79434 6.28732 4.10132 6.05221 4.48131C5.81711 4.8613 5.69249 5.29926 5.69234 5.7461C5.69234 5.9237 5.76289 6.09403 5.88847 6.21961C6.01406 6.34519 6.18438 6.41575 6.36198 6.41575C6.53958 6.41575 6.70991 6.34519 6.83549 6.21961C6.96107 6.09403 7.03163 5.9237 7.03163 5.7461C7.03166 5.53533 7.09417 5.3293 7.21127 5.15404C7.32836 4.97878 7.49477 4.84217 7.68948 4.76146V4.76253ZM8.0977 12.2036C7.84337 12.2033 7.59958 12.102 7.41995 11.922C7.24031 11.7419 7.13956 11.4979 7.13984 11.2436C7.14012 10.9893 7.24143 10.7455 7.42146 10.5659C7.6015 10.3862 7.84552 10.2855 8.09984 10.2857H8.10198C8.35631 10.286 8.6001 10.3873 8.77973 10.5674C8.95937 10.7474 9.06012 10.9914 9.05984 11.2457C9.05956 11.5001 8.95825 11.7439 8.77822 11.9235C8.59818 12.1031 8.35416 12.2039 8.09984 12.2036H8.0977Z" fill="#D4D4D4"/>
</svg>
